<?xml version="1.0" standalone="no"?>
<!DOCTYPE svg PUBLIC "-//W3C//DTD SVG 20010904//EN"
 "http://www.w3.org/TR/2001/REC-SVG-20010904/DTD/svg10.dtd">
<svg version="1.0" xmlns="http://www.w3.org/2000/svg"
 width="1080.000000pt" height="355.000000pt" viewBox="0 0 1080.000000 355.000000"
 preserveAspectRatio="xMidYMid meet">

<g transform="translate(0.000000,355.000000) scale(0.100000,-0.100000)"
fill="#FFFFFF" stroke="none">
<path d="M1865 3501 c-60 -7 -223 -77 -358 -153 l-58 -33 4 -51 c3 -28 2 -55
-1 -61 -4 -5 -34 -22 -67 -38 -33 -16 -75 -41 -93 -57 -34 -29 -162 -120 -216
-152 -17 -11 -62 -40 -99 -65 -38 -25 -85 -57 -105 -70 -21 -14 -63 -46 -94
-72 -32 -27 -89 -66 -127 -89 -42 -25 -104 -77 -160 -135 -51 -52 -98 -95
-106 -95 -8 0 -22 13 -32 30 -50 86 -173 15 -268 -155 -64 -114 -78 -182 -79
-395 -1 -169 1 -190 22 -245 12 -32 22 -68 22 -78 0 -10 9 -39 21 -64 11 -25
31 -100 45 -167 13 -66 33 -146 45 -176 11 -30 27 -74 34 -97 32 -98 193 -420
223 -443 12 -10 22 -28 22 -41 0 -13 14 -44 30 -68 17 -24 30 -51 30 -59 0 -9
28 -59 63 -111 34 -53 69 -109 78 -126 15 -31 82 -86 159 -132 33 -20 61 -28
105 -29 33 -2 77 -6 98 -9 29 -6 42 -3 57 10 49 44 78 154 90 340 6 77 14 163
20 190 5 28 12 88 15 135 3 47 10 89 15 94 6 6 10 19 10 30 0 42 49 124 111
187 122 123 455 378 574 440 108 56 191 106 244 149 60 48 165 114 231 145 30
15 114 56 187 92 124 62 135 65 180 59 26 -3 80 -22 118 -40 39 -19 84 -38
100 -42 17 -3 44 -15 61 -25 17 -10 75 -35 128 -54 92 -33 104 -35 223 -35
124 0 127 1 174 30 55 36 74 74 73 144 -2 72 -25 187 -44 216 -8 14 -22 39
-30 55 -19 40 -127 202 -140 210 -5 3 -43 47 -84 98 -87 108 -101 123 -186
200 -36 32 -92 84 -125 116 -162 156 -446 395 -565 476 -174 119 -263 174
-309 193 -60 25 -171 34 -266 23z m174 -40 c19 -13 4 -31 -26 -31 -50 0 -171
-44 -319 -116 -84 -41 -158 -74 -167 -74 -8 0 -20 7 -27 15 -9 11 -7 19 13 39
37 37 271 147 342 161 73 15 165 18 184 6z m192 -95 c39 -14 44 -18 238 -178
68 -57 136 -112 150 -122 47 -35 193 -169 316 -288 306 -299 316 -310 478
-515 112 -143 176 -365 124 -431 -16 -21 -76 -42 -116 -42 -90 0 -246 31 -296
59 -27 15 -66 33 -85 40 -20 6 -81 34 -135 63 -93 47 -105 51 -175 52 l-75 1
-185 -94 c-213 -107 -241 -124 -353 -207 -45 -34 -133 -89 -196 -123 -168 -92
-279 -170 -436 -306 -38 -34 -86 -71 -106 -83 -20 -12 -72 -59 -115 -105 -104
-110 -135 -184 -154 -372 -7 -60 -16 -121 -21 -135 -5 -14 -13 -91 -18 -171
-10 -154 -25 -234 -48 -260 -11 -13 -28 -15 -86 -11 -105 7 -190 56 -234 134
-14 24 -41 63 -62 88 -46 56 -85 122 -101 175 -7 22 -30 57 -51 77 -22 21 -39
42 -39 47 0 5 -14 40 -31 78 -17 37 -42 93 -56 123 -14 30 -34 74 -44 97 -11
23 -26 73 -34 111 -8 37 -21 85 -30 105 -8 20 -15 49 -15 64 -1 15 -7 39 -15
53 -8 14 -14 36 -15 51 0 14 -5 30 -11 36 -6 6 -17 44 -26 84 -8 41 -25 103
-37 139 -47 134 -59 203 -48 274 6 37 18 81 28 99 28 54 64 121 77 143 23 39
168 190 289 301 120 109 150 134 233 189 22 14 56 41 75 59 19 18 67 52 105
75 39 24 72 46 75 50 7 10 294 221 333 245 18 10 37 24 42 30 15 17 127 81
155 90 14 4 41 18 60 31 19 13 51 29 70 35 19 7 51 22 70 34 19 13 58 28 85
35 28 6 59 16 70 21 11 5 61 23 110 38 100 32 205 39 266 17z m-1911 -952 c12
-29 0 -58 -30 -74 -22 -12 -100 -113 -100 -130 0 -6 -16 -33 -35 -61 -19 -28
-35 -57 -35 -65 0 -7 -11 -24 -24 -37 l-24 -25 -6 24 c-4 14 0 50 8 82 8 31
17 73 20 92 9 50 55 115 122 170 67 56 90 61 104 24z"/>
<path d="M1486 3003 c-3 -21 -6 -88 -6 -150 0 -105 -1 -113 -22 -128 -13 -9
-65 -46 -116 -83 -193 -138 -289 -203 -342 -231 l-55 -29 -75 25 c-86 28 -174
40 -184 25 -10 -16 14 -28 136 -66 79 -25 127 -34 145 -30 33 8 142 66 198
106 22 16 61 43 86 61 42 29 135 104 237 194 l37 32 -3 128 c-2 134 -8 183
-21 183 -5 0 -11 -17 -15 -37z"/>
<path d="M2027 2990 c-81 -90 -71 -196 25 -246 64 -33 147 -5 207 72 32 40 26
131 -10 170 -32 35 -78 54 -133 54 -40 0 -48 -4 -89 -50z"/>
<path d="M1478 2553 c-39 -40 -38 -83 3 -117 41 -35 83 -34 120 3 56 56 30
126 -51 137 -40 5 -48 3 -72 -23z m97 -15 c46 -21 20 -88 -35 -88 -39 0 -62
29 -54 68 5 27 11 32 35 32 15 0 40 -5 54 -12z"/>
<path d="M1898 2428 c-33 -36 -57 -73 -58 -85 0 -12 11 -39 25 -59 14 -21 24
-42 22 -48 -2 -6 -20 -22 -40 -35 -29 -19 -37 -31 -37 -54 0 -39 28 -95 56
-114 22 -14 27 -13 71 15 79 49 84 49 132 -8 48 -57 81 -65 106 -27 8 13 35
38 60 56 25 18 45 39 45 48 0 9 -16 33 -35 54 -19 22 -35 43 -35 47 0 5 23 29
51 55 47 43 50 47 37 69 -16 30 -101 108 -117 108 -7 0 -23 -11 -36 -24 -56
-57 -83 -52 -114 19 -17 38 -24 45 -48 45 -22 0 -41 -14 -85 -62z"/>
<path d="M1107 2303 c-24 -17 -37 -34 -37 -49 0 -31 47 -84 74 -84 79 0 115
124 43 149 -40 14 -37 15 -80 -16z m88 -48 c0 -49 0 -50 -33 -53 -42 -4 -62
12 -62 50 0 23 6 32 33 43 52 23 62 17 62 -40z"/>
<path d="M400 2168 c-38 -14 -60 -48 -60 -95 0 -34 5 -46 31 -67 40 -34 71
-33 113 5 45 39 58 92 30 119 -31 31 -85 49 -114 38z"/>
<path d="M745 2118 c-49 -27 -65 -50 -65 -98 0 -25 5 -51 12 -58 17 -17 103
-15 137 3 33 16 56 64 47 98 -3 14 -22 31 -49 45 -50 25 -54 26 -82 10z"/>
<path d="M1093 1872 c-17 -15 -55 -47 -83 -71 -28 -24 -57 -55 -64 -70 -36
-71 -27 -147 26 -207 83 -94 222 -83 334 25 37 36 42 47 48 102 9 86 -16 172
-58 204 -67 50 -155 58 -203 17z"/>
<path d="M319 1857 c-66 -45 -80 -127 -30 -178 16 -16 37 -29 46 -29 65 0 142
84 132 144 -3 19 -13 46 -22 60 -23 34 -78 35 -126 3z"/>
<path d="M633 1847 c-43 -24 -64 -63 -61 -114 3 -41 7 -49 36 -66 50 -29 94
-17 132 38 16 24 30 52 30 63 0 23 -45 71 -78 83 -29 11 -32 11 -59 -4z"/>
<path d="M4293 1543 c-16 -25 -19 -73 -24 -549 -4 -287 -10 -527 -13 -533 -4
-6 -4 -33 0 -60 5 -43 11 -51 36 -62 37 -15 74 0 89 38 14 35 28 447 28 860 1
299 0 313 -18 323 -37 19 -79 12 -98 -17z"/>
<path d="M10120 1543 c-20 -26 -22 -35 -16 -118 4 -49 2 -302 -4 -562 -12
-504 -12 -505 36 -523 29 -11 77 9 88 35 3 9 6 70 6 136 0 101 3 121 18 134
39 32 127 95 132 94 7 0 197 -268 228 -321 37 -64 62 -88 92 -88 59 0 77 67
39 143 -12 23 -73 113 -137 200 l-115 158 121 122 c73 74 123 133 128 150 9
37 -22 81 -60 85 -23 3 -53 -22 -212 -177 -112 -110 -192 -181 -204 -181 -20
0 -20 8 -18 343 3 314 2 345 -15 370 -25 38 -77 38 -107 0z"/>
<path d="M7723 1536 c-64 -20 -104 -49 -181 -131 -81 -85 -109 -125 -168 -245
-98 -200 -134 -407 -100 -571 26 -123 75 -193 170 -242 59 -30 66 -32 181 -32
110 0 127 3 193 29 82 33 169 99 225 171 45 58 101 171 119 241 7 27 23 62 35
77 30 37 29 72 -3 104 l-26 26 -137 -6 c-167 -8 -243 -20 -346 -54 -89 -29
-135 -66 -135 -108 0 -27 40 -75 62 -75 8 0 49 14 93 31 85 33 202 58 273 59
41 0 42 -1 36 -28 -12 -58 -75 -170 -121 -216 -26 -27 -76 -62 -111 -78 -56
-27 -73 -30 -153 -30 -82 0 -96 3 -138 29 -37 23 -49 38 -63 78 -20 59 -24
229 -7 321 33 177 196 435 313 496 54 28 108 20 211 -31 46 -23 92 -41 103
-41 22 0 62 43 62 67 0 56 -84 114 -221 152 -86 24 -108 25 -166 7z"/>
<path d="M2254 1516 c-16 -12 -20 -33 -28 -138 -5 -68 -10 -233 -10 -368 -1
-135 -6 -341 -11 -458 -8 -197 -7 -213 10 -232 18 -20 51 -26 71 -12 23 15 32
50 39 147 4 55 12 147 19 205 14 123 -17 104 251 154 214 40 366 60 393 52 16
-5 18 -22 19 -168 1 -90 5 -203 8 -251 7 -88 7 -88 41 -105 32 -15 36 -15 62
5 26 20 27 23 27 114 -1 52 -5 148 -9 215 -6 83 -5 151 3 215 7 52 16 207 20
344 10 275 8 285 -49 285 -35 0 -45 -13 -70 -85 -17 -50 -20 -84 -20 -241 0
-214 9 -198 -120 -208 -120 -9 -276 -34 -440 -71 -112 -25 -107 -29 -115 78
-4 50 -2 176 4 278 7 103 9 199 5 214 -10 40 -64 57 -100 31z"/>
<path d="M4675 1166 c-13 -13 -27 -37 -31 -52 -4 -15 -2 -129 5 -253 6 -124
11 -355 11 -513 l0 -288 64 0 63 0 5 145 c3 80 7 148 10 150 2 3 31 0 64 -6
80 -15 191 -6 242 20 107 55 175 163 187 298 9 109 -8 233 -44 310 -52 109
-118 153 -231 153 -69 0 -103 -11 -232 -78 -5 -2 -8 19 -8 46 0 43 -4 54 -26
71 -34 27 -50 26 -79 -3z m430 -209 c27 -27 35 -45 45 -106 15 -92 9 -212 -15
-270 -11 -27 -33 -54 -58 -72 -37 -26 -47 -29 -121 -28 -45 0 -97 5 -116 12
l-35 12 -6 90 c-4 50 -7 136 -8 192 l-1 102 43 35 c61 50 102 65 176 66 58 0
66 -3 96 -33z"/>
<path d="M8621 1139 c-62 -12 -143 -64 -184 -118 -83 -110 -112 -210 -105
-368 3 -85 8 -105 33 -151 51 -94 142 -150 280 -172 74 -12 148 -2 249 31 139
47 213 142 156 199 -29 29 -55 25 -97 -18 -55 -56 -137 -84 -243 -85 -72 0
-93 4 -136 26 -50 25 -114 80 -114 97 0 13 19 24 195 105 216 101 241 115 290
165 38 39 40 44 40 103 0 76 -22 111 -92 149 -77 42 -178 56 -272 37z m207
-149 c80 -35 59 -55 -198 -182 -96 -48 -179 -83 -183 -79 -12 12 38 147 70
194 31 45 73 77 117 88 45 11 144 1 194 -21z"/>
<path d="M9464 1137 c-175 -45 -294 -248 -282 -482 5 -96 29 -155 88 -218 50
-55 101 -80 206 -102 87 -18 129 -15 239 17 127 36 205 98 205 162 0 36 -25
66 -56 66 -10 0 -35 -17 -55 -38 -77 -82 -267 -115 -372 -63 -55 27 -103 64
-117 92 -9 17 5 26 142 91 265 126 310 152 346 197 26 35 32 52 32 92 0 28 -7
63 -15 80 -19 36 -86 86 -134 99 -64 17 -173 20 -227 7z m209 -142 c18 -7 39
-21 46 -29 11 -13 10 -19 -10 -36 -32 -27 -396 -210 -403 -202 -12 12 -5 45
25 116 35 83 86 140 145 162 45 17 144 11 197 -11z"/>
<path d="M3563 1110 c-101 -51 -166 -137 -202 -270 -26 -91 -27 -202 -4 -284
14 -51 26 -71 78 -122 52 -51 72 -63 126 -79 35 -10 93 -20 130 -23 120 -8
304 56 359 126 30 37 24 91 -12 112 -27 15 -29 14 -70 -29 -66 -68 -112 -84
-243 -85 -102 -1 -113 1 -155 25 -109 64 -127 108 -57 138 136 58 397 195 429
225 40 37 54 83 44 144 -8 52 -34 82 -102 117 -52 26 -71 30 -159 33 -95 3
-103 2 -162 -28z m263 -111 c85 -36 81 -52 -24 -112 -96 -55 -324 -167 -340
-167 -31 0 2 113 58 200 47 73 97 100 187 100 50 0 86 -6 119 -21z"/>
<path d="M5672 1110 c-85 -43 -149 -121 -188 -226 -26 -71 -29 -91 -29 -199 0
-117 1 -122 33 -180 79 -144 260 -205 463 -157 48 12 107 34 133 49 l46 28 0
77 c0 43 -4 78 -9 78 -6 0 -21 -15 -35 -33 -50 -66 -179 -105 -305 -92 -74 7
-112 24 -163 73 -56 53 -51 66 40 108 270 125 339 161 382 197 48 41 59 64 60
123 0 69 -29 110 -104 149 -52 26 -71 30 -160 33 -97 3 -104 2 -164 -28z m239
-102 c19 -6 47 -20 63 -31 l29 -21 -35 -30 c-45 -39 -383 -210 -397 -201 -17
10 -13 45 13 108 35 84 65 125 116 158 38 24 56 29 111 29 36 0 81 -5 100 -12z"/>
</g>
</svg>
