<svg version="1.1" id="Layer_1" xmlns="http://www.w3.org/2000/svg" xmlns:xlink="http://www.w3.org/1999/xlink" x="0px" y="0px"
	width="100%" viewBox="0 0 910 293" enable-background="new 0 0 910 293" xml:space="preserve">
<!-- <path 
	d="
M394.000000,294.000000 
	C263.103088,294.000000 132.206192,294.000000 1.000000,294.000000 
	C1.000000,242.977097 1.000000,191.953552 1.372992,140.670135 
	C1.929896,143.387909 1.628775,146.495071 2.383150,149.320435 
	C5.371029,160.510986 8.881938,171.562531 11.834579,182.761673 
	C15.259970,195.753906 18.839432,208.601471 25.406586,220.507248 
	C30.798471,230.282349 35.187195,240.607880 40.495274,250.432983 
	C45.120327,258.993835 50.814335,266.986267 55.284512,275.618988 
	C59.366653,283.502350 66.705925,286.868256 73.710037,290.848145 
	C75.018005,291.591370 76.897072,291.370148 78.519852,291.509155 
	C80.952446,291.717529 83.589874,291.316162 85.785149,292.130829 
	C89.953918,293.677887 92.985481,292.150818 94.601448,288.814545 
	C96.589699,284.709686 98.292603,280.219879 98.889313,275.732941 
	C100.851822,260.975891 102.059998,246.118866 103.998344,231.358078 
	C104.589890,226.853363 106.094536,222.290359 108.073936,218.184525 
	C111.777962,210.501312 118.898163,205.908813 125.001816,200.260437 
	C144.730682,182.003159 168.642685,170.002701 190.687012,155.257095 
	C201.798553,147.824509 214.268661,142.409424 226.207169,136.242188 
	C227.862579,135.387009 230.248840,134.688553 231.863495,135.224014 
	C240.139267,137.968430 248.657623,140.389267 256.368774,144.335022 
	C268.691040,150.640274 281.608673,152.289627 295.000885,151.397186 
	C303.169952,150.852814 308.244781,144.017242 307.781464,135.903290 
	C306.830139,119.243103 298.779663,105.808968 288.115631,93.870186 
	C278.508911,83.115120 268.215820,72.962379 258.037537,62.730934 
	C239.704727,44.302338 219.708176,27.805590 198.240082,13.197004 
	C191.891586,8.876981 184.522354,5.976860 177.423157,2.879240 
	C174.554871,1.627706 171.156921,1.590058 168.000000,1.000000 
	C415.597504,1.000000 663.195007,1.000000 910.896240,1.000000 
	C910.896240,98.570152 910.896240,196.140457 910.896240,294.000000 
	C743.310120,294.000000 575.620056,294.000000 407.337891,293.545715 
	C406.745758,284.670746 406.745758,276.250031 406.745758,267.451202 
	C409.496643,267.960693 411.446045,268.341553 413.402618,268.681000 
	C429.174652,271.417328 441.986115,264.870697 446.699615,250.840546 
	C451.004883,238.025467 449.998962,225.128555 444.211914,212.927658 
	C439.741608,203.502838 430.680817,199.291840 420.517792,201.780075 
	C415.274689,203.063766 410.318634,205.519943 405.119965,207.489120 
	C405.168396,206.476471 405.674225,204.978348 405.202271,203.913620 
	C404.154663,201.550125 403.129974,198.458450 401.159485,197.388916 
	C398.144318,195.752304 395.213806,197.760956 394.027802,200.899994 
	C393.052155,203.482208 392.342316,206.364792 392.384552,209.100815 
	C392.821655,237.402115 393.435394,265.700684 394.000000,294.000000 
M655.359680,180.333191 
	C662.871033,178.920517 668.899719,182.642670 674.978210,186.076447 
	C678.376892,187.996399 681.391785,187.866730 683.769714,184.633499 
	C685.987183,181.618469 685.359009,178.729004 682.851807,176.090927 
	C672.641174,165.347153 652.219971,163.773315 641.398254,173.769760 
	C621.735352,191.933182 612.138550,214.752350 613.287537,241.531754 
	C614.003723,258.224548 621.751099,267.978119 635.679138,270.437012 
	C641.453918,271.456512 647.793152,271.549194 653.493958,270.308716 
	C673.763977,265.898071 684.385742,251.616318 689.983093,232.673645 
	C690.524963,230.839752 691.757080,229.205765 692.267151,227.367554 
	C692.976440,224.811005 694.322571,221.742508 693.488037,219.656540 
	C692.775391,217.875214 689.381958,216.191238 687.156738,216.168182 
	C679.679504,216.090775 672.062500,216.043503 664.747742,217.363464 
	C656.663147,218.822357 648.634949,221.255951 640.998840,224.307587 
	C635.863953,226.359680 635.555603,233.080811 640.115906,235.485260 
	C642.069153,236.515121 645.337463,236.302994 647.518494,235.430695 
	C656.683289,231.765182 666.083374,229.743805 676.002441,229.465805 
	C673.719238,248.178757 656.293518,261.173187 638.406799,257.849854 
	C632.241333,256.704315 628.156555,253.252838 626.997070,246.902359 
	C624.056274,230.795731 627.204895,215.715698 635.563965,201.858429 
	C640.510559,193.658157 645.375000,185.112762 655.359680,180.333191 
M229.780930,215.312119 
	C220.333038,217.097122 210.885147,218.882141 200.927185,220.763519 
	C200.927185,218.527145 200.890320,216.877563 200.933075,215.230057 
	C201.231216,203.742752 201.548370,192.255951 201.852844,180.768814 
	C201.905838,178.769760 201.986649,176.768860 201.951584,174.770615 
	C201.879791,170.677658 200.051483,167.960007 195.691422,168.011078 
	C191.587494,168.059143 189.865891,170.661880 189.766190,174.554276 
	C189.177765,197.524414 188.631989,220.495789 187.964828,243.463654 
	C187.747284,250.952972 186.930344,258.435669 187.003387,265.915375 
	C187.022797,267.902100 188.911285,270.711243 190.702362,271.587158 
	C192.276062,272.356812 195.429977,271.569031 196.929886,270.320557 
	C198.288055,269.190033 198.739471,266.543213 198.926102,264.504120 
	C199.864471,254.252197 200.584961,243.980331 201.436768,233.009628 
	C219.114853,230.016708 236.706589,227.038406 254.868027,223.963638 
	C254.868027,226.693741 254.830200,227.987595 254.873932,229.278702 
	C255.257370,240.598206 255.625107,251.918381 256.065582,263.235718 
	C256.218475,267.163147 258.409088,269.659912 262.301239,269.607910 
	C266.203339,269.555847 268.289520,267.076538 268.231903,263.053650 
	C268.203247,261.054169 268.104645,259.055206 268.100464,257.055878 
	C268.071289,243.083603 267.941376,229.110107 268.085175,215.139481 
	C268.169128,206.985718 268.645508,198.833893 269.048859,190.686310 
	C269.286438,185.887299 269.547516,181.076370 270.131683,176.311722 
	C270.607330,172.432220 269.553955,169.654800 265.659302,168.592102 
	C261.835632,167.548767 259.905029,170.214569 259.106018,173.161224 
	C257.943817,177.447266 257.027863,181.909225 256.850861,186.329987 
	C256.507050,194.916885 256.750244,203.527267 256.750244,211.822464 
	C247.132477,213.049561 238.883102,214.102081 229.780930,215.312119 
M886.603088,225.607391 
	C892.177246,219.883789 897.848328,214.250427 903.291504,208.404892 
	C906.907776,204.521225 906.968018,201.235794 903.980835,198.421112 
	C900.974060,195.588028 897.843262,196.018585 894.027954,199.763733 
	C886.305603,207.344101 878.604980,214.947113 870.825012,222.468048 
	C869.116821,224.119431 867.114624,225.466782 864.295776,227.712692 
	C864.295776,224.433044 864.295166,222.491531 864.295898,220.550003 
	C864.302063,204.236038 864.324036,187.922073 864.303772,171.608139 
	C864.298645,167.524811 862.529724,164.888031 858.107483,164.825363 
	C854.007507,164.767258 851.990356,167.170990 851.925049,172.106354 
	C851.905212,173.604492 852.028687,175.104507 852.010132,176.602692 
	C851.738098,198.579285 851.477234,220.556046 851.156799,242.531937 
	C851.057434,249.348907 850.557678,256.167694 850.684204,262.977417 
	C850.758911,267.001678 853.094788,269.523712 857.502014,269.085632 
	C861.619568,268.676361 862.988220,265.965912 863.088989,262.159760 
	C863.230042,256.834412 863.451172,251.508469 863.800293,246.193451 
	C863.878601,245.000397 864.287842,243.420517 865.127808,242.758362 
	C868.364746,240.206787 871.838074,237.955109 875.296448,235.540497 
	C876.213928,236.701508 876.982544,237.573959 877.640991,238.522903 
	C883.988831,247.671524 890.387756,256.786102 896.615417,266.016113 
	C898.829712,269.297882 901.555664,270.581543 905.082703,268.783386 
	C908.599487,266.990417 909.446228,263.870636 907.819702,260.320435 
	C906.717224,257.914185 905.448792,255.537781 903.928589,253.377365 
	C898.472168,245.622803 892.832214,237.997238 887.383606,230.237289 
	C886.588135,229.104324 886.454834,227.506424 886.603088,225.607391 
M828.143555,264.690704 
	C832.184937,262.323395 836.688599,260.081787 837.161072,254.838409 
	C837.341431,252.837112 835.919678,250.038437 834.309448,248.760880 
	C833.255615,247.924789 829.701904,248.444565 828.723755,249.595001 
	C821.578125,257.999542 812.112610,258.802856 802.302856,257.887115 
	C795.462524,257.248566 789.864319,253.902069 786.129700,247.630569 
	C790.990479,245.318939 795.479858,243.176849 799.975525,241.047943 
	C804.476929,238.916260 809.067810,236.955078 813.465698,234.628448 
	C817.707214,232.384583 822.153198,230.251541 825.800903,227.217941 
	C833.608826,220.724365 832.433350,209.887802 823.762512,204.540222 
	C809.809631,195.935013 790.283508,200.120590 781.312988,213.766739 
	C775.115417,223.194672 773.097473,233.760818 774.321106,244.784195 
	C775.647888,256.737396 782.617676,264.454041 794.022156,268.039948 
	C805.555237,271.666321 816.692200,270.121063 828.143555,264.690704 
M727.328430,269.210510 
	C738.653992,271.375732 749.233765,269.075439 758.827637,263.043182 
	C761.687866,261.244812 764.036804,257.954529 765.436218,254.819427 
	C766.065186,253.410416 764.269653,250.103317 762.653259,248.797546 
	C761.593201,247.941208 758.010559,248.385727 757.052734,249.515366 
	C749.932129,257.912994 740.507324,258.787170 730.677429,257.911621 
	C723.794006,257.298615 718.262024,253.908234 714.320679,247.672913 
	C724.184204,242.979980 733.663269,238.620438 742.992310,233.960648 
	C746.975159,231.971252 751.048889,229.819702 754.374268,226.928650 
	C761.648071,220.604965 760.551819,210.175629 752.478577,204.850739 
	C739.328674,196.177368 719.690491,199.729172 710.458557,212.446548 
	C705.316162,219.530334 703.195251,227.613235 702.375732,236.192383 
	C700.722168,253.503769 709.391357,265.406830 727.328430,269.210510 
M283.772949,248.486099 
	C285.681519,256.873016 290.673309,262.908905 298.427399,266.301636 
	C313.394226,272.850220 327.779083,270.759033 341.070068,261.843323 
	C343.563324,260.170837 345.021118,256.351807 345.933136,253.224792 
	C346.292755,251.991791 344.184570,249.249939 342.582642,248.480133 
	C341.268097,247.848419 338.312683,248.498428 337.331482,249.646255 
	C330.028778,258.188812 320.373627,258.895325 310.404083,257.804474 
	C303.936676,257.096832 298.641571,253.719147 294.858185,247.660522 
	C303.999237,243.324539 312.896057,239.279175 321.622101,234.893890 
	C326.201782,232.592361 330.918671,230.215408 334.803650,226.955063 
	C342.083557,220.845627 341.199310,210.652283 333.457214,205.136322 
	C321.365082,196.521133 301.387024,199.221695 292.208862,210.870926 
	C283.638123,221.749191 281.617279,234.266373 283.772949,248.486099 
M486.167419,269.473541 
	C497.159424,271.117462 507.465790,268.933441 516.702820,262.964874 
	C519.521790,261.143372 521.786743,257.794525 523.117188,254.643448 
	C523.714478,253.228943 521.861694,249.957916 520.221985,248.713425 
	C519.149963,247.899811 515.624390,248.508087 514.637085,249.685928 
	C507.935272,257.680847 498.960358,258.510040 489.650818,258.027985 
	C482.335876,257.649200 476.450378,254.333282 472.058899,247.661591 
	C480.734833,243.564346 489.035461,239.822433 497.164917,235.739670 
	C502.193909,233.214035 507.410828,230.727203 511.749664,227.236450 
	C519.512024,220.991333 518.516052,210.314804 510.228119,204.834641 
	C497.386719,196.343613 478.153870,199.512070 468.799438,211.700516 
	C462.681061,219.672577 460.249207,228.890320 460.062317,238.761368 
	C459.740326,255.767853 468.598297,266.400452 486.167419,269.473541 
M374.067230,209.511597 
	C374.103424,206.178772 374.112030,202.845367 374.181091,199.513214 
	C374.374481,190.183655 374.732971,180.854858 374.750275,171.525253 
	C374.761169,165.667831 370.171234,162.292419 365.644531,165.118057 
	C363.680450,166.344070 362.284424,169.931870 362.202240,172.497284 
	C361.348450,199.142807 360.809265,225.798477 360.199585,252.451706 
	C360.111969,256.282959 359.995392,260.119720 360.107880,263.947601 
	C360.211395,267.469208 362.241455,269.521301 365.734497,269.757416 
	C369.156433,269.988678 371.521057,268.418762 372.261017,264.923401 
	C372.569397,263.466736 372.794617,261.967987 372.833374,260.482513 
	C373.268097,243.824875 373.658997,227.166122 374.067230,209.511597 
M610.722107,278.920746 
	C609.252686,278.349213 607.786682,277.295319 606.313354,277.285065 
	C597.321838,277.222565 588.328369,277.494568 579.336060,277.472015 
	C561.343628,277.426941 543.351440,277.259735 525.359070,277.174713 
	C524.935852,277.172699 524.510742,277.546326 524.227722,277.678711 
	C524.227722,281.459045 524.227722,285.067291 524.227722,288.644592 
	C553.152527,288.644592 581.840332,288.644592 610.736877,288.644592 
	C610.736877,285.464661 610.736877,282.648529 610.722107,278.920746 
z"/> -->
<!-- <path
	d="
M1.000000,133.000000 
	C1.000000,89.064896 1.000000,45.129791 1.000000,1.000000 
	C55.687408,1.000000 110.375046,1.000000 165.330658,1.366023 
	C160.607529,2.834658 155.368729,3.316571 150.683777,5.186307 
	C143.768890,7.946001 137.169525,11.545824 130.580475,15.059177 
	C123.247902,18.968985 123.318512,19.101412 125.570602,27.270948 
	C121.510910,29.494152 117.132851,31.464388 113.215988,34.115913 
	C100.906097,42.449112 88.547882,50.740677 76.629883,59.614483 
	C65.267433,68.074646 52.466801,74.675125 42.853065,85.448860 
	C40.784920,87.766556 38.292706,89.705833 36.004417,91.811531 
	C28.485630,84.969513 25.164268,84.759560 18.061935,91.606033 
	C11.074914,98.341354 6.726822,106.693504 4.619954,116.175621 
	C3.375716,121.775391 2.204213,127.391335 1.000000,133.000000 
z"/> -->
<path fill="#FF3838" opacity="1.000000" stroke="none" 
	d="
M1.000000,133.437500 
	C2.204213,127.391335 3.375716,121.775391 4.619954,116.175621 
	C6.726822,106.693504 11.074914,98.341354 18.061935,91.606033 
	C25.164268,84.759560 28.485630,84.969513 36.004417,91.811531 
	C38.292706,89.705833 40.784920,87.766556 42.853065,85.448860 
	C52.466801,74.675125 65.267433,68.074646 76.629883,59.614483 
	C88.547882,50.740677 100.906097,42.449112 113.215988,34.115913 
	C117.132851,31.464388 121.510910,29.494152 125.570602,27.270948 
	C123.318512,19.101412 123.247902,18.968985 130.580475,15.059177 
	C137.169525,11.545824 143.768890,7.946001 150.683777,5.186307 
	C155.368729,3.316571 160.607529,2.834658 165.799316,1.366023 
	C166.444443,1.000000 166.888901,1.000000 167.666672,1.000000 
	C171.156921,1.590058 174.554871,1.627706 177.423157,2.879240 
	C184.522354,5.976860 191.891586,8.876981 198.240082,13.197004 
	C219.708176,27.805590 239.704727,44.302338 258.037537,62.730934 
	C268.215820,72.962379 278.508911,83.115120 288.115631,93.870186 
	C298.779663,105.808968 306.830139,119.243103 307.781464,135.903290 
	C308.244781,144.017242 303.169952,150.852814 295.000885,151.397186 
	C281.608673,152.289627 268.691040,150.640274 256.368774,144.335022 
	C248.657623,140.389267 240.139267,137.968430 231.863495,135.224014 
	C230.248840,134.688553 227.862579,135.387009 226.207169,136.242188 
	C214.268661,142.409424 201.798553,147.824509 190.687012,155.257095 
	C168.642685,170.002701 144.730682,182.003159 125.001816,200.260437 
	C118.898163,205.908813 111.777962,210.501312 108.073936,218.184525 
	C106.094536,222.290359 104.589890,226.853363 103.998344,231.358078 
	C102.059998,246.118866 100.851822,260.975891 98.889313,275.732941 
	C98.292603,280.219879 96.589699,284.709686 94.601448,288.814545 
	C92.985481,292.150818 89.953918,293.677887 85.785149,292.130829 
	C83.589874,291.316162 80.952446,291.717529 78.519852,291.509155 
	C76.897072,291.370148 75.018005,291.591370 73.710037,290.848145 
	C66.705925,286.868256 59.366653,283.502350 55.284512,275.618988 
	C50.814335,266.986267 45.120327,258.993835 40.495274,250.432983 
	C35.187195,240.607880 30.798471,230.282349 25.406586,220.507248 
	C18.839432,208.601471 15.259970,195.753906 11.834579,182.761673 
	C8.881938,171.562531 5.371029,160.510986 2.383150,149.320435 
	C1.628775,146.495071 1.929896,143.387909 1.372992,140.205109 
	C1.000000,137.958328 1.000000,135.916672 1.000000,133.437500 
M153.248077,21.658459 
	C149.824661,23.255671 146.466660,25.015724 142.966385,26.421570 
	C128.715332,32.145348 116.045227,40.491947 103.809273,49.614479 
	C95.846664,55.551006 87.754227,61.313244 79.729774,67.167015 
	C72.929390,72.127846 65.963676,76.883934 59.399143,82.140274 
	C52.317482,87.810684 45.608669,93.947540 38.752197,99.898193 
	C27.861834,109.349808 18.147226,119.820541 13.076519,133.572556 
	C11.416528,138.074539 10.149927,143.608521 11.215369,148.070770 
	C15.241574,164.933182 19.912632,181.670670 25.103331,198.216156 
	C28.799843,209.998886 33.578495,221.453644 38.148640,232.945633 
	C40.242783,238.211517 41.854984,243.929596 47.106937,247.305023 
	C47.492893,247.553070 47.843437,248.053589 47.955807,248.500717 
	C50.128983,257.148010 55.988029,263.603607 61.002903,270.564850 
	C62.635464,272.831024 63.919628,275.406189 65.814331,277.414337 
	C70.967926,282.876617 77.565079,284.513855 84.943581,284.803406 
	C88.310097,284.935577 89.614204,284.069519 89.963699,281.147034 
	C90.764923,274.447266 91.364418,267.722687 92.216057,261.029816 
	C93.577751,250.328506 94.843300,239.606323 96.590218,228.965302 
	C98.098282,219.779236 101.456589,211.307434 108.816116,205.033401 
	C117.530228,197.604584 125.832649,189.575150 135.160995,183.010269 
	C151.984344,171.170700 169.232132,159.895401 186.708588,149.037857 
	C196.554184,142.921127 207.583313,138.704315 217.402390,132.551422 
	C228.329468,125.704208 238.224014,127.235825 248.824783,132.892700 
	C256.840515,137.170135 265.130066,141.296082 273.775299,143.910141 
	C279.952545,145.777939 286.928741,145.441833 293.534454,145.321442 
	C299.286469,145.216644 301.507477,141.961441 301.234253,136.001236 
	C300.765167,125.770325 296.122742,117.129677 290.497589,109.040436 
	C278.591827,91.919449 263.622406,77.599663 248.200256,63.720909 
	C245.492355,61.284012 243.243805,58.328705 240.490952,55.951073 
	C227.179794,44.454220 213.847961,32.977974 200.337524,21.717501 
	C196.970673,18.911350 193.160889,15.697591 189.110901,14.886092 
	C183.966568,13.855316 178.237518,14.432253 173.002090,15.500125 
	C166.535690,16.819080 160.317520,19.354935 153.248077,21.658459 
M8.980646,123.198067 
	C9.037435,124.106773 9.094224,125.015480 9.159564,126.061012 
	C12.183781,121.442245 14.959346,117.010185 17.932766,112.715088 
	C21.052662,108.208427 23.981144,103.472420 27.718576,99.523026 
	C30.352734,96.739471 30.543921,95.140617 27.595108,92.845039 
	C20.418880,98.031837 13.416815,103.068275 11.479069,112.361206 
	C10.773743,115.743767 9.865399,119.083977 8.980646,123.198067 
M151.535995,15.015753 
	C158.910492,12.284051 166.284973,9.552350 173.185623,6.996171 
	C164.530121,3.801197 132.619385,15.557507 129.789276,24.603252 
	C132.685333,23.642313 134.950058,23.121004 137.010101,22.160633 
	C141.671051,19.987749 146.231049,17.598257 151.535995,15.015753 
z"/>
<path fill="#FF3636" opacity="1.000000" stroke="none" 
	d="
M394.463196,294.000000 
	C393.435394,265.700684 392.821655,237.402115 392.384552,209.100815 
	C392.342316,206.364792 393.052155,203.482208 394.027802,200.899994 
	C395.213806,197.760956 398.144318,195.752304 401.159485,197.388916 
	C403.129974,198.458450 404.154663,201.550125 405.202271,203.913620 
	C405.674225,204.978348 405.168396,206.476471 405.119965,207.489120 
	C410.318634,205.519943 415.274689,203.063766 420.517792,201.780075 
	C430.680817,199.291840 439.741608,203.502838 444.211914,212.927658 
	C449.998962,225.128555 451.004883,238.025467 446.699615,250.840546 
	C441.986115,264.870697 429.174652,271.417328 413.402618,268.681000 
	C411.446045,268.341553 409.496643,267.960693 406.745758,267.451202 
	C406.745758,276.250031 406.745758,284.670746 406.872864,293.545715 
	C402.975464,294.000000 398.950897,294.000000 394.463196,294.000000 
M420.282623,214.439789 
	C417.581116,215.659897 414.782166,216.704514 412.199249,218.138275 
	C407.466736,220.765259 405.223694,224.469421 406.112305,230.315384 
	C406.954865,235.858490 406.748322,241.571960 406.855072,247.213318 
	C406.994202,254.564514 406.970734,254.611237 414.355988,255.860992 
	C426.559509,257.926147 434.665039,253.295898 435.819977,242.685684 
	C436.473358,236.682953 436.139618,230.382767 435.072510,224.427643 
	C433.505188,215.681458 429.982574,213.553711 420.282623,214.439789 
z"/>
<path fill="#FFFFFF" opacity="1.000000" stroke="none" 
	d="
M655.000977,180.509155 
	C645.375000,185.112762 640.510559,193.658157 635.563965,201.858429 
	C627.204895,215.715698 624.056274,230.795731 626.997070,246.902359 
	C628.156555,253.252838 632.241333,256.704315 638.406799,257.849854 
	C656.293518,261.173187 673.719238,248.178757 676.002441,229.465805 
	C666.083374,229.743805 656.683289,231.765182 647.518494,235.430695 
	C645.337463,236.302994 642.069153,236.515121 640.115906,235.485260 
	C635.555603,233.080811 635.863953,226.359680 640.998840,224.307587 
	C648.634949,221.255951 656.663147,218.822357 664.747742,217.363464 
	C672.062500,216.043503 679.679504,216.090775 687.156738,216.168182 
	C689.381958,216.191238 692.775391,217.875214 693.488037,219.656540 
	C694.322571,221.742508 692.976440,224.811005 692.267151,227.367554 
	C691.757080,229.205765 690.524963,230.839752 689.983093,232.673645 
	C684.385742,251.616318 673.763977,265.898071 653.493958,270.308716 
	C647.793152,271.549194 641.453918,271.456512 635.679138,270.437012 
	C621.751099,267.978119 614.003723,258.224548 613.287537,241.531754 
	C612.138550,214.752350 621.735352,191.933182 641.398254,173.769760 
	C652.219971,163.773315 672.641174,165.347153 682.851807,176.090927 
	C685.359009,178.729004 685.987183,181.618469 683.769714,184.633499 
	C681.391785,187.866730 678.376892,187.996399 674.978210,186.076447 
	C668.899719,182.642670 662.871033,178.920517 655.000977,180.509155 
z"/>
<path fill="#FF3535" opacity="1.000000" stroke="none" 
	d="
M230.207336,215.233368 
	C238.883102,214.102081 247.132477,213.049561 256.750244,211.822464 
	C256.750244,203.527267 256.507050,194.916885 256.850861,186.329987 
	C257.027863,181.909225 257.943817,177.447266 259.106018,173.161224 
	C259.905029,170.214569 261.835632,167.548767 265.659302,168.592102 
	C269.553955,169.654800 270.607330,172.432220 270.131683,176.311722 
	C269.547516,181.076370 269.286438,185.887299 269.048859,190.686310 
	C268.645508,198.833893 268.169128,206.985718 268.085175,215.139481 
	C267.941376,229.110107 268.071289,243.083603 268.100464,257.055878 
	C268.104645,259.055206 268.203247,261.054169 268.231903,263.053650 
	C268.289520,267.076538 266.203339,269.555847 262.301239,269.607910 
	C258.409088,269.659912 256.218475,267.163147 256.065582,263.235718 
	C255.625107,251.918381 255.257370,240.598206 254.873932,229.278702 
	C254.830200,227.987595 254.868027,226.693741 254.868027,223.963638 
	C236.706589,227.038406 219.114853,230.016708 201.436768,233.009628 
	C200.584961,243.980331 199.864471,254.252197 198.926102,264.504120 
	C198.739471,266.543213 198.288055,269.190033 196.929886,270.320557 
	C195.429977,271.569031 192.276062,272.356812 190.702362,271.587158 
	C188.911285,270.711243 187.022797,267.902100 187.003387,265.915375 
	C186.930344,258.435669 187.747284,250.952972 187.964828,243.463654 
	C188.631989,220.495789 189.177765,197.524414 189.766190,174.554276 
	C189.865891,170.661880 191.587494,168.059143 195.691422,168.011078 
	C200.051483,167.960007 201.879791,170.677658 201.951584,174.770615 
	C201.986649,176.768860 201.905838,178.769760 201.852844,180.768814 
	C201.548370,192.255951 201.231216,203.742752 200.933075,215.230057 
	C200.890320,216.877563 200.927185,218.527145 200.927185,220.763519 
	C210.885147,218.882141 220.333038,217.097122 230.207336,215.233368 
z"/>
<path fill="#FFFFFF" opacity="1.000000" stroke="none" 
	d="
M886.309082,225.865524 
	C886.454834,227.506424 886.588135,229.104324 887.383606,230.237289 
	C892.832214,237.997238 898.472168,245.622803 903.928589,253.377365 
	C905.448792,255.537781 906.717224,257.914185 907.819702,260.320435 
	C909.446228,263.870636 908.599487,266.990417 905.082703,268.783386 
	C901.555664,270.581543 898.829712,269.297882 896.615417,266.016113 
	C890.387756,256.786102 883.988831,247.671524 877.640991,238.522903 
	C876.982544,237.573959 876.213928,236.701508 875.296448,235.540497 
	C871.838074,237.955109 868.364746,240.206787 865.127808,242.758362 
	C864.287842,243.420517 863.878601,245.000397 863.800293,246.193451 
	C863.451172,251.508469 863.230042,256.834412 863.088989,262.159760 
	C862.988220,265.965912 861.619568,268.676361 857.502014,269.085632 
	C853.094788,269.523712 850.758911,267.001678 850.684204,262.977417 
	C850.557678,256.167694 851.057434,249.348907 851.156799,242.531937 
	C851.477234,220.556046 851.738098,198.579285 852.010132,176.602692 
	C852.028687,175.104507 851.905212,173.604492 851.925049,172.106354 
	C851.990356,167.170990 854.007507,164.767258 858.107483,164.825363 
	C862.529724,164.888031 864.298645,167.524811 864.303772,171.608139 
	C864.324036,187.922073 864.302063,204.236038 864.295898,220.550003 
	C864.295166,222.491531 864.295776,224.433044 864.295776,227.712692 
	C867.114624,225.466782 869.116821,224.119431 870.825012,222.468048 
	C878.604980,214.947113 886.305603,207.344101 894.027954,199.763733 
	C897.843262,196.018585 900.974060,195.588028 903.980835,198.421112 
	C906.968018,201.235794 906.907776,204.521225 903.291504,208.404892 
	C897.848328,214.250427 892.177246,219.883789 886.309082,225.865524 
z"/>
<path fill="#FFFFFF" opacity="1.000000" stroke="none" 
	d="
M827.803894,264.839111 
	C816.692200,270.121063 805.555237,271.666321 794.022156,268.039948 
	C782.617676,264.454041 775.647888,256.737396 774.321106,244.784195 
	C773.097473,233.760818 775.115417,223.194672 781.312988,213.766739 
	C790.283508,200.120590 809.809631,195.935013 823.762512,204.540222 
	C832.433350,209.887802 833.608826,220.724365 825.800903,227.217941 
	C822.153198,230.251541 817.707214,232.384583 813.465698,234.628448 
	C809.067810,236.955078 804.476929,238.916260 799.975525,241.047943 
	C795.479858,243.176849 790.990479,245.318939 786.129700,247.630569 
	C789.864319,253.902069 795.462524,257.248566 802.302856,257.887115 
	C812.112610,258.802856 821.578125,257.999542 828.723755,249.595001 
	C829.701904,248.444565 833.255615,247.924789 834.309448,248.760880 
	C835.919678,250.038437 837.341431,252.837112 837.161072,254.838409 
	C836.688599,260.081787 832.184937,262.323395 827.803894,264.839111 
M817.760925,219.174545 
	C818.636475,218.379395 819.512085,217.584229 820.476562,216.708389 
	C813.181030,211.519653 804.142090,210.241913 797.904419,213.633606 
	C789.380371,218.268448 787.156982,226.650452 784.550171,236.564880 
	C796.311157,230.454880 806.741516,225.036194 817.760925,219.174545 
z"/>
<path fill="#FFFFFF" opacity="1.000000" stroke="none" 
	d="
M726.903320,269.148499 
	C709.391357,265.406830 700.722168,253.503769 702.375732,236.192383 
	C703.195251,227.613235 705.316162,219.530334 710.458557,212.446548 
	C719.690491,199.729172 739.328674,196.177368 752.478577,204.850739 
	C760.551819,210.175629 761.648071,220.604965 754.374268,226.928650 
	C751.048889,229.819702 746.975159,231.971252 742.992310,233.960648 
	C733.663269,238.620438 724.184204,242.979980 714.320679,247.672913 
	C718.262024,253.908234 723.794006,257.298615 730.677429,257.911621 
	C740.507324,258.787170 749.932129,257.912994 757.052734,249.515366 
	C758.010559,248.385727 761.593201,247.941208 762.653259,248.797546 
	C764.269653,250.103317 766.065186,253.410416 765.436218,254.819427 
	C764.036804,257.954529 761.687866,261.244812 758.827637,263.043182 
	C749.233765,269.075439 738.653992,271.375732 726.903320,269.148499 
M714.719971,235.094574 
	C726.253174,229.469543 738.394775,224.949951 749.234497,216.817810 
	C741.414734,211.597168 733.660400,209.749985 725.994568,213.865448 
	C717.885742,218.218643 714.477356,226.023056 713.715454,234.789200 
	C713.616699,235.040787 713.517883,235.292389 713.419128,235.543976 
	C713.607727,235.356720 713.796326,235.169479 714.719971,235.094574 
z"/>
<path fill="#FF3636" opacity="1.000000" stroke="none" 
	d="
M283.649780,248.075653 
	C281.617279,234.266373 283.638123,221.749191 292.208862,210.870926 
	C301.387024,199.221695 321.365082,196.521133 333.457214,205.136322 
	C341.199310,210.652283 342.083557,220.845627 334.803650,226.955063 
	C330.918671,230.215408 326.201782,232.592361 321.622101,234.893890 
	C312.896057,239.279175 303.999237,243.324539 294.858185,247.660522 
	C298.641571,253.719147 303.936676,257.096832 310.404083,257.804474 
	C320.373627,258.895325 330.028778,258.188812 337.331482,249.646255 
	C338.312683,248.498428 341.268097,247.848419 342.582642,248.480133 
	C344.184570,249.249939 346.292755,251.991791 345.933136,253.224792 
	C345.021118,256.351807 343.563324,260.170837 341.070068,261.843323 
	C327.779083,270.759033 313.394226,272.850220 298.427399,266.301636 
	C290.673309,262.908905 285.681519,256.873016 283.649780,248.075653 
M319.072266,223.659393 
	C322.487457,221.524292 325.902649,219.389191 329.901459,216.889236 
	C321.858307,211.589172 314.191498,209.897461 306.460571,213.864166 
	C298.086578,218.160797 295.848663,226.518051 293.530365,236.050110 
	C302.630890,231.635529 310.516785,227.810165 319.072266,223.659393 
z"/>
<path fill="#FF3535" opacity="1.000000" stroke="none" 
	d="
M485.743469,269.376221 
	C468.598297,266.400452 459.740326,255.767853 460.062317,238.761368 
	C460.249207,228.890320 462.681061,219.672577 468.799438,211.700516 
	C478.153870,199.512070 497.386719,196.343613 510.228119,204.834641 
	C518.516052,210.314804 519.512024,220.991333 511.749664,227.236450 
	C507.410828,230.727203 502.193909,233.214035 497.164917,235.739670 
	C489.035461,239.822433 480.734833,243.564346 472.058899,247.661591 
	C476.450378,254.333282 482.335876,257.649200 489.650818,258.027985 
	C498.960358,258.510040 507.935272,257.680847 514.637085,249.685928 
	C515.624390,248.508087 519.149963,247.899811 520.221985,248.713425 
	C521.861694,249.957916 523.714478,253.228943 523.117188,254.643448 
	C521.786743,257.794525 519.521790,261.143372 516.702820,262.964874 
	C507.465790,268.933441 497.159424,271.117462 485.743469,269.376221 
M504.946625,218.349380 
	C504.886444,217.351303 505.231384,215.875610 504.704010,215.428253 
	C498.770569,210.395004 485.891998,210.819046 480.155670,216.234985 
	C474.750092,221.338684 472.522247,227.979004 470.817261,236.536804 
	C482.747986,230.232819 493.559204,224.520355 504.946625,218.349380 
z"/>
<path fill="#FF3636" opacity="1.000000" stroke="none" 
	d="
M374.064453,210.009628 
	C373.658997,227.166122 373.268097,243.824875 372.833374,260.482513 
	C372.794617,261.967987 372.569397,263.466736 372.261017,264.923401 
	C371.521057,268.418762 369.156433,269.988678 365.734497,269.757416 
	C362.241455,269.521301 360.211395,267.469208 360.107880,263.947601 
	C359.995392,260.119720 360.111969,256.282959 360.199585,252.451706 
	C360.809265,225.798477 361.348450,199.142807 362.202240,172.497284 
	C362.284424,169.931870 363.680450,166.344070 365.644531,165.118057 
	C370.171234,162.292419 374.761169,165.667831 374.750275,171.525253 
	C374.732971,180.854858 374.374481,190.183655 374.181091,199.513214 
	C374.112030,202.845367 374.103424,206.178772 374.064453,210.009628 
z"/>
<path fill="#FFFFFF" opacity="1.000000" stroke="none" 
	d="
M610.729492,279.376587 
	C610.736877,282.648529 610.736877,285.464661 610.736877,288.644592 
	C581.840332,288.644592 553.152527,288.644592 524.227722,288.644592 
	C524.227722,285.067291 524.227722,281.459045 524.227722,277.678711 
	C524.510742,277.546326 524.935852,277.172699 525.359070,277.174713 
	C543.351440,277.259735 561.343628,277.426941 579.336060,277.472015 
	C588.328369,277.494568 597.321838,277.222565 606.313354,277.285065 
	C607.786682,277.295319 609.252686,278.349213 610.729492,279.376587 
z"/>
<!-- <path fill="" opacity="1.000000" stroke="none" 
	d="
M153.620087,21.511719 
	C160.317520,19.354935 166.535690,16.819080 173.002090,15.500125 
	C178.237518,14.432253 183.966568,13.855316 189.110901,14.886092 
	C193.160889,15.697591 196.970673,18.911350 200.337524,21.717501 
	C213.847961,32.977974 227.179794,44.454220 240.490952,55.951073 
	C243.243805,58.328705 245.492355,61.284012 248.200256,63.720909 
	C263.622406,77.599663 278.591827,91.919449 290.497589,109.040436 
	C296.122742,117.129677 300.765167,125.770325 301.234253,136.001236 
	C301.507477,141.961441 299.286469,145.216644 293.534454,145.321442 
	C286.928741,145.441833 279.952545,145.777939 273.775299,143.910141 
	C265.130066,141.296082 256.840515,137.170135 248.824783,132.892700 
	C238.224014,127.235825 228.329468,125.704208 217.402390,132.551422 
	C207.583313,138.704315 196.554184,142.921127 186.708588,149.037857 
	C169.232132,159.895401 151.984344,171.170700 135.160995,183.010269 
	C125.832649,189.575150 117.530228,197.604584 108.816116,205.033401 
	C101.456589,211.307434 98.098282,219.779236 96.590218,228.965302 
	C94.843300,239.606323 93.577751,250.328506 92.216057,261.029816 
	C91.364418,267.722687 90.764923,274.447266 89.963699,281.147034 
	C89.614204,284.069519 88.310097,284.935577 84.943581,284.803406 
	C77.565079,284.513855 70.967926,282.876617 65.814331,277.414337 
	C63.919628,275.406189 62.635464,272.831024 61.002903,270.564850 
	C55.988029,263.603607 50.128983,257.148010 47.955807,248.500717 
	C47.843437,248.053589 47.492893,247.553070 47.106937,247.305023 
	C41.854984,243.929596 40.242783,238.211517 38.148640,232.945633 
	C33.578495,221.453644 28.799843,209.998886 25.103331,198.216156 
	C19.912632,181.670670 15.241574,164.933182 11.215369,148.070770 
	C10.149927,143.608521 11.416528,138.074539 13.076519,133.572556 
	C18.147226,119.820541 27.861834,109.349808 38.752197,99.898193 
	C45.608669,93.947540 52.317482,87.810684 59.399143,82.140274 
	C65.963676,76.883934 72.929390,72.127846 79.729774,67.167015 
	C87.754227,61.313244 95.846664,55.551006 103.809273,49.614479 
	C116.045227,40.491947 128.715332,32.145348 142.966385,26.421570 
	C146.466660,25.015724 149.824661,23.255671 153.620087,21.511719 
M157.549820,112.078224 
	C153.213760,114.987915 153.098053,117.697495 157.027420,124.311028 
	C159.344406,128.210754 161.624680,128.752090 166.123047,125.861298 
	C170.281998,123.188614 173.447495,121.733772 177.154312,127.114220 
	C180.560867,132.058884 183.697464,131.616928 187.730835,127.259987 
	C188.406296,126.530312 189.066177,125.773018 189.821472,125.132484 
	C197.252197,118.830849 197.254456,118.840027 190.225830,111.470978 
	C190.053192,111.289986 190.148041,110.853867 190.118134,110.536743 
	C190.557495,105.686577 202.148178,106.062164 196.186249,98.537697 
	C189.157578,89.666908 188.065063,89.795006 178.192551,96.181938 
	C176.878540,94.316071 175.498840,92.473969 174.243729,90.550568 
	C171.531998,86.395065 168.368622,85.970604 165.013046,89.436516 
	C162.710739,91.814529 160.490646,94.271950 158.205292,96.666672 
	C155.856461,99.127930 155.911224,101.679932 157.903107,104.273499 
	C159.009506,105.714111 160.225159,107.070816 161.635193,108.756599 
	C160.415634,109.803032 159.307358,110.753967 157.549820,112.078224 
M88.589600,173.024719 
	C91.234039,173.757431 93.843750,174.924286 96.529602,175.139130 
	C103.753128,175.716873 108.718376,171.243057 114.148712,167.258713 
	C121.258781,162.041916 118.600410,143.032745 110.944489,139.242035 
	C103.257301,135.435852 97.197784,137.134781 90.609016,142.056320 
	C77.654305,151.732910 76.304970,164.065063 88.589600,173.024719 
M127.535568,42.705765 
	C127.274101,49.643799 127.086128,56.586002 126.692482,63.516533 
	C126.608345,64.997818 126.233337,67.070419 125.221237,67.798050 
	C113.898567,75.938301 102.519287,84.009064 90.943680,91.783531 
	C86.476486,94.783813 81.972382,96.984070 75.842369,94.047935 
	C71.274849,91.860207 65.570854,90.426987 59.952236,93.722641 
	C62.646736,95.552261 65.505165,96.888000 68.467422,97.928001 
	C71.117142,98.858261 74.114372,99.020370 76.546516,100.302490 
	C81.607018,102.970169 85.915138,101.681458 90.623833,99.282326 
	C104.980568,91.967400 116.816216,81.238640 129.161880,71.216393 
	C130.873215,69.827141 132.428909,67.029099 132.386185,64.917038 
	C132.238831,57.634323 131.424606,50.359158 130.688141,43.098991 
	C130.527649,41.516926 129.848450,39.440197 127.535568,42.705765 
M177.576279,67.956970 
	C187.210464,69.763649 196.833527,62.293335 195.775589,53.579674 
	C195.097885,47.997898 192.476166,43.421707 186.689941,41.689053 
	C181.115616,40.019855 176.418518,40.562885 172.287933,45.821705 
	C165.218307,54.822338 166.731400,63.594280 177.576279,67.956970 
M24.004625,151.200958 
	C24.647846,155.496323 27.177229,158.352142 31.356689,158.889801 
	C36.275032,159.522522 39.303802,156.099426 41.840343,152.471786 
	C44.608826,148.512451 44.098370,144.434006 40.679630,140.365112 
	C37.590763,136.688828 34.401310,138.027130 30.860546,139.731155 
	C26.261892,141.944305 24.225651,145.514557 24.004625,151.200958 
M50.237728,152.979095 
	C51.142735,157.308426 54.505444,158.773132 58.224728,159.003937 
	C62.962578,159.297913 65.958023,156.408279 67.473778,152.134644 
	C68.809479,148.368622 68.444389,144.499741 64.700432,142.554764 
	C62.208008,141.259949 58.418831,140.243591 56.139462,141.236404 
	C51.911541,143.077942 49.462002,147.058823 50.237728,152.979095 
M71.583290,118.686134 
	C66.745323,116.707153 63.199352,118.732109 60.530563,122.583847 
	C58.194130,125.955894 58.114319,130.573486 61.140797,132.456635 
	C63.925457,134.189316 68.818024,134.241440 72.031715,133.035110 
	C74.583900,132.077087 76.824982,128.348297 77.718033,125.399597 
	C78.856171,121.641632 75.432755,120.067841 71.583290,118.686134 
M41.667274,130.578293 
	C42.930882,129.799225 44.395367,129.222458 45.421150,128.203888 
	C48.751785,124.896706 49.369614,119.330292 46.617912,117.088760 
	C43.082150,114.208542 38.918007,112.344437 34.685326,115.016449 
	C31.358507,117.116623 29.526665,120.606560 30.848932,124.857643 
	C32.393745,129.824203 35.980469,131.497604 41.667274,130.578293 
M139.543533,82.104881 
	C137.564941,81.399391 135.544006,80.792786 133.616730,79.967453 
	C129.814590,78.339264 127.274269,80.659744 125.908218,83.326126 
	C124.806023,85.477470 124.221863,89.361412 125.424294,90.878296 
	C127.175621,93.087624 130.759293,95.057648 133.522873,95.007034 
	C139.920578,94.889885 142.378769,89.614220 139.543533,82.104881 
M101.927559,114.890068 
	C103.095901,113.989815 104.526749,113.287231 105.382111,112.151291 
	C107.710564,109.059052 107.287422,104.208336 104.675552,102.156509 
	C100.362251,98.768082 97.094521,101.980896 94.086304,104.297379 
	C91.041138,106.642319 92.297432,110.154358 94.233376,112.231735 
	C95.764809,113.875061 98.781143,114.134575 101.927559,114.890068 
z"/> -->
<!-- <path fill="#FFF3F3" opacity="1.000000" stroke="none" 
	d="
M9.015163,122.820786 
	C9.865399,119.083977 10.773743,115.743767 11.479069,112.361206 
	C13.416815,103.068275 20.418880,98.031837 27.595108,92.845039 
	C30.543921,95.140617 30.352734,96.739471 27.718576,99.523026 
	C23.981144,103.472420 21.052662,108.208427 17.932766,112.715088 
	C14.959346,117.010185 12.183781,121.442245 9.159564,126.061012 
	C9.094224,125.015480 9.037435,124.106773 9.015163,122.820786 
z"/> -->
<!-- <path fill="#FFEEEE" opacity="1.000000" stroke="none" 
	d="
M151.184052,15.156306 
	C146.231049,17.598257 141.671051,19.987749 137.010101,22.160633 
	C134.950058,23.121004 132.685333,23.642313 129.789276,24.603252 
	C132.619385,15.557507 164.530121,3.801197 173.185623,6.996171 
	C166.284973,9.552350 158.910492,12.284051 151.184052,15.156306 
z"/> -->
<!-- <path fill="#FFFDFD" opacity="1.000000" stroke="none" 
	d="
M420.684937,214.339752 
	C429.982574,213.553711 433.505188,215.681458 435.072510,224.427643 
	C436.139618,230.382767 436.473358,236.682953 435.819977,242.685684 
	C434.665039,253.295898 426.559509,257.926147 414.355988,255.860992 
	C406.970734,254.611237 406.994202,254.564514 406.855072,247.213318 
	C406.748322,241.571960 406.954865,235.858490 406.112305,230.315384 
	C405.223694,224.469421 407.466736,220.765259 412.199249,218.138275 
	C414.782166,216.704514 417.581116,215.659897 420.684937,214.339752 
z"/> -->
<!-- <path fill="#F9F9F9" opacity="1.000000" stroke="none" 
	d="
M817.466370,219.396027 
	C806.741516,225.036194 796.311157,230.454880 784.550171,236.564880 
	C787.156982,226.650452 789.380371,218.268448 797.904419,213.633606 
	C804.142090,210.241913 813.181030,211.519653 820.476562,216.708389 
	C819.512085,217.584229 818.636475,218.379395 817.466370,219.396027 
z"/>
<path fill="#F8F8F8" opacity="1.000000" stroke="none" 
	d="
M714.067444,235.115662 
	C714.477356,226.023056 717.885742,218.218643 725.994568,213.865448 
	C733.660400,209.749985 741.414734,211.597168 749.234497,216.817810 
	C738.394775,224.949951 726.253174,229.469543 714.375366,235.070374 
	C714.030762,235.046173 714.067444,235.115662 714.067444,235.115662 
z"/>
<path fill="#F8F8F8" opacity="1.000000" stroke="none" 
	d="
M714.007874,235.014191 
	C713.796326,235.169479 713.607727,235.356720 713.419067,235.543976 
	C713.517883,235.292389 713.616699,235.040787 713.891479,234.952423 
	C714.067444,235.115662 714.030762,235.046173 714.007874,235.014191 
z"/>
<path fill="#FFFAFA" opacity="1.000000" stroke="none" 
	d="
M318.737457,223.822098 
	C310.516785,227.810165 302.630890,231.635529 293.530365,236.050110 
	C295.848663,226.518051 298.086578,218.160797 306.460571,213.864166 
	C314.191498,209.897461 321.858307,211.589172 329.901459,216.889236 
	C325.902649,219.389191 322.487457,221.524292 318.737457,223.822098 
z"/>
<path fill="#FFFAFA" opacity="1.000000" stroke="none" 
	d="
M504.658508,218.578644 
	C493.559204,224.520355 482.747986,230.232819 470.817261,236.536804 
	C472.522247,227.979004 474.750092,221.338684 480.155670,216.234985 
	C485.891998,210.819046 498.770569,210.395004 504.704010,215.428253 
	C505.231384,215.875610 504.886444,217.351303 504.658508,218.578644 
z"/> -->
<path fill="#FF3434" opacity="1.000000" stroke="none" 
	d="
M157.874451,111.891571 
	C159.307358,110.753967 160.415634,109.803032 161.635193,108.756599 
	C160.225159,107.070816 159.009506,105.714111 157.903107,104.273499 
	C155.911224,101.679932 155.856461,99.127930 158.205292,96.666672 
	C160.490646,94.271950 162.710739,91.814529 165.013046,89.436516 
	C168.368622,85.970604 171.531998,86.395065 174.243729,90.550568 
	C175.498840,92.473969 176.878540,94.316071 178.192551,96.181938 
	C188.065063,89.795006 189.157578,89.666908 196.186249,98.537697 
	C202.148178,106.062164 190.557495,105.686577 190.118134,110.536743 
	C190.148041,110.853867 190.053192,111.289986 190.225830,111.470978 
	C197.254456,118.840027 197.252197,118.830849 189.821472,125.132484 
	C189.066177,125.773018 188.406296,126.530312 187.730835,127.259987 
	C183.697464,131.616928 180.560867,132.058884 177.154312,127.114220 
	C173.447495,121.733772 170.281998,123.188614 166.123047,125.861298 
	C161.624680,128.752090 159.344406,128.210754 157.027420,124.311028 
	C153.098053,117.697495 153.213760,114.987915 157.874451,111.891571 
z"/>
<path fill="#FF3434" opacity="1.000000" stroke="none" 
	d="
M88.273376,172.836761 
	C76.304970,164.065063 77.654305,151.732910 90.609016,142.056320 
	C97.197784,137.134781 103.257301,135.435852 110.944489,139.242035 
	C118.600410,143.032745 121.258781,162.041916 114.148712,167.258713 
	C108.718376,171.243057 103.753128,175.716873 96.529602,175.139130 
	C93.843750,174.924286 91.234039,173.757431 88.273376,172.836761 
z"/>
<path fill="#FF3A3A" opacity="1.000000" stroke="none" 
	d="
M127.654343,42.346687 
	C129.848450,39.440197 130.527649,41.516926 130.688141,43.098991 
	C131.424606,50.359158 132.238831,57.634323 132.386185,64.917038 
	C132.428909,67.029099 130.873215,69.827141 129.161880,71.216393 
	C116.816216,81.238640 104.980568,91.967400 90.623833,99.282326 
	C85.915138,101.681458 81.607018,102.970169 76.546516,100.302490 
	C74.114372,99.020370 71.117142,98.858261 68.467422,97.928001 
	C65.505165,96.888000 62.646736,95.552261 59.952236,93.722641 
	C65.570854,90.426987 71.274849,91.860207 75.842369,94.047935 
	C81.972382,96.984070 86.476486,94.783813 90.943680,91.783531 
	C102.519287,84.009064 113.898567,75.938301 125.221237,67.798050 
	C126.233337,67.070419 126.608345,64.997818 126.692482,63.516533 
	C127.086128,56.586002 127.274101,49.643799 127.654343,42.346687 
z"/>
<path fill="#FF3434" opacity="1.000000" stroke="none" 
	d="
M177.210144,67.851425 
	C166.731400,63.594280 165.218307,54.822338 172.287933,45.821705 
	C176.418518,40.562885 181.115616,40.019855 186.689941,41.689053 
	C192.476166,43.421707 195.097885,47.997898 195.775589,53.579674 
	C196.833527,62.293335 187.210464,69.763649 177.210144,67.851425 
z"/>
<path fill="#FF3636" opacity="1.000000" stroke="none" 
	d="
M24.005878,150.798798 
	C24.225651,145.514557 26.261892,141.944305 30.860546,139.731155 
	C34.401310,138.027130 37.590763,136.688828 40.679630,140.365112 
	C44.098370,144.434006 44.608826,148.512451 41.840343,152.471786 
	C39.303802,156.099426 36.275032,159.522522 31.356689,158.889801 
	C27.177229,158.352142 24.647846,155.496323 24.005878,150.798798 
z"/>
<path fill="#FF3838" opacity="1.000000" stroke="none" 
	d="
M50.185238,152.579300 
	C49.462002,147.058823 51.911541,143.077942 56.139462,141.236404 
	C58.418831,140.243591 62.208008,141.259949 64.700432,142.554764 
	C68.444389,144.499741 68.809479,148.368622 67.473778,152.134644 
	C65.958023,156.408279 62.962578,159.297913 58.224728,159.003937 
	C54.505444,158.773132 51.142735,157.308426 50.185238,152.579300 
z"/>
<path fill="#FF3838" opacity="1.000000" stroke="none" 
	d="
M71.958298,118.826118 
	C75.432755,120.067841 78.856171,121.641632 77.718033,125.399597 
	C76.824982,128.348297 74.583900,132.077087 72.031715,133.035110 
	C68.818024,134.241440 63.925457,134.189316 61.140797,132.456635 
	C58.114319,130.573486 58.194130,125.955894 60.530563,122.583847 
	C63.199352,118.732109 66.745323,116.707153 71.958298,118.826118 
z"/>
<path fill="#FF3636" opacity="1.000000" stroke="none" 
	d="
M41.289734,130.707489 
	C35.980469,131.497604 32.393745,129.824203 30.848932,124.857643 
	C29.526665,120.606560 31.358507,117.116623 34.685326,115.016449 
	C38.918007,112.344437 43.082150,114.208542 46.617912,117.088760 
	C49.369614,119.330292 48.751785,124.896706 45.421150,128.203888 
	C44.395367,129.222458 42.930882,129.799225 41.289734,130.707489 
z"/>
<path fill="#FF4343" opacity="1.000000" stroke="none" 
	d="
M139.774261,82.429932 
	C142.378769,89.614220 139.920578,94.889885 133.522873,95.007034 
	C130.759293,95.057648 127.175621,93.087624 125.424294,90.878296 
	C124.221863,89.361412 124.806023,85.477470 125.908218,83.326126 
	C127.274269,80.659744 129.814590,78.339264 133.616730,79.967453 
	C135.544006,80.792786 137.564941,81.399391 139.774261,82.429932 
M135.613953,89.036674 
	C135.337967,87.470337 135.571442,85.116531 134.662537,84.528503 
	C133.405899,83.715515 131.150833,83.836754 129.608185,84.374718 
	C128.991348,84.589844 128.495880,87.766846 129.056931,88.220444 
	C130.364532,89.277580 132.339249,89.525551 134.063980,90.032249 
	C134.302551,90.102341 134.656281,89.780472 135.613953,89.036674 
z"/>
<path fill="#FF3D3D" opacity="1.000000" stroke="none" 
	d="
M101.532814,114.949341 
	C98.781143,114.134575 95.764809,113.875061 94.233376,112.231735 
	C92.297432,110.154358 91.041138,106.642319 94.086304,104.297379 
	C97.094521,101.980896 100.362251,98.768082 104.675552,102.156509 
	C107.287422,104.208336 107.710564,109.059052 105.382111,112.151291 
	C104.526749,113.287231 103.095901,113.989815 101.532814,114.949341 
M102.950729,110.310112 
	C102.958168,108.322540 102.965607,106.334976 102.973045,104.347397 
	C100.994522,104.830490 98.854294,105.014809 97.121765,105.952454 
	C96.481934,106.298721 96.369080,109.389572 96.758652,109.563339 
	C98.532799,110.354645 100.571350,110.553116 102.950729,110.310112 
z"/>
<path fill="" opacity="1.000000" stroke="none" 
	d="
M135.285324,89.338364 
	C134.656281,89.780472 134.302551,90.102341 134.063980,90.032249 
	C132.339249,89.525551 130.364532,89.277580 129.056931,88.220444 
	C128.495880,87.766846 128.991348,84.589844 129.608185,84.374718 
	C131.150833,83.836754 133.405899,83.715515 134.662537,84.528503 
	C135.571442,85.116531 135.337967,87.470337 135.285324,89.338364 
z"/>
<path fill="" opacity="1.000000" stroke="none" 
	d="
M102.732780,110.637436 
	C100.571350,110.553116 98.532799,110.354645 96.758652,109.563339 
	C96.369080,109.389572 96.481934,106.298721 97.121765,105.952454 
	C98.854294,105.014809 100.994522,104.830490 102.973045,104.347397 
	C102.965607,106.334976 102.958168,108.322540 102.732780,110.637436 
z"/>
</svg>